<svg width="76" height="26" viewBox="0 0 76 26" fill="none" xmlns="http://www.w3.org/2000/svg">
<path d="M13 7.14844C11.9427 7.14844 10.9583 7.42188 10.0469 7.96875C9.17188 8.47917 8.46094 9.1901 7.91406 10.1016C7.40365 10.9766 7.14844 11.9427 7.14844 13C7.14844 14.0573 7.40365 15.0417 7.91406 15.9531C8.46094 16.8281 9.17188 17.5391 10.0469 18.0859C10.9583 18.5964 11.9427 18.8516 13 18.8516C14.0573 18.8516 15.0234 18.5964 15.8984 18.0859C16.8099 17.5391 17.5208 16.8281 18.0312 15.9531C18.5781 15.0417 18.8516 14.0573 18.8516 13C18.8516 11.9427 18.5781 10.9766 18.0312 10.1016C17.5208 9.1901 16.8099 8.47917 15.8984 7.96875C15.0234 7.42188 14.0573 7.14844 13 7.14844ZM1.35156 14.1484H3.64844C3.97656 14.1484 4.25 14.0391 4.46875 13.8203C4.72396 13.6016 4.85156 13.3281 4.85156 13C4.85156 12.6719 4.72396 12.3984 4.46875 12.1797C4.25 11.9609 3.97656 11.8516 3.64844 11.8516H1.35156C1.02344 11.8516 0.731771 11.9609 0.476562 12.1797C0.257812 12.3984 0.148438 12.6719 0.148438 13C0.148438 13.3281 0.257812 13.6016 0.476562 13.8203C0.731771 14.0391 1.02344 14.1484 1.35156 14.1484ZM22.3516 14.1484H24.6484C24.9766 14.1484 25.25 14.0391 25.4688 13.8203C25.724 13.6016 25.8516 13.3281 25.8516 13C25.8516 12.6719 25.724 12.3984 25.4688 12.1797C25.25 11.9609 24.9766 11.8516 24.6484 11.8516H22.3516C22.0234 11.8516 21.7318 11.9609 21.4766 12.1797C21.2578 12.3984 21.1484 12.6719 21.1484 13C21.1484 13.3281 21.2578 13.6016 21.4766 13.8203C21.7318 14.0391 22.0234 14.1484 22.3516 14.1484ZM11.8516 1.35156V3.64844C11.8516 3.97656 11.9609 4.26823 12.1797 4.52344C12.3984 4.74219 12.6719 4.85156 13 4.85156C13.3281 4.85156 13.6016 4.74219 13.8203 4.52344C14.0391 4.26823 14.1484 3.97656 14.1484 3.64844V1.35156C14.1484 1.02344 14.0391 0.75 13.8203 0.53125C13.6016 0.276042 13.3281 0.148438 13 0.148438C12.6719 0.148438 12.3984 0.276042 12.1797 0.53125C11.9609 0.75 11.8516 1.02344 11.8516 1.35156ZM11.8516 22.3516V24.6484C11.8516 24.9766 11.9609 25.2682 12.1797 25.5234C12.3984 25.7422 12.6719 25.8516 13 25.8516C13.3281 25.8516 13.6016 25.7422 13.8203 25.5234C14.0391 25.2682 14.1484 24.9766 14.1484 24.6484V22.3516C14.1484 22.0234 14.0391 21.75 13.8203 21.5312C13.6016 21.276 13.3281 21.1484 13 21.1484C12.6719 21.1484 12.3984 21.276 12.1797 21.5312C11.9609 21.75 11.8516 22.0234 11.8516 22.3516ZM6 4.35938C5.78125 4.10417 5.50781 3.97656 5.17969 3.97656C4.85156 3.97656 4.57812 4.10417 4.35938 4.35938C4.10417 4.57812 3.97656 4.85156 3.97656 5.17969C3.97656 5.50781 4.10417 5.78125 4.35938 6L5.5625 7.20312C5.81771 7.45833 6.09115 7.58594 6.38281 7.58594C6.71094 7.58594 6.98438 7.45833 7.20312 7.20312C7.42188 6.98438 7.53125 6.71094 7.53125 6.38281C7.56771 6.05469 7.45833 5.78125 7.20312 5.5625L6 4.35938ZM20.4375 18.7969C20.1823 18.5417 19.8906 18.4141 19.5625 18.4141C19.2708 18.4141 19.0156 18.5417 18.7969 18.7969C18.5417 19.0156 18.4141 19.2891 18.4141 19.6172C18.4141 19.9453 18.5417 20.2188 18.7969 20.4375L20 21.6406C20.2188 21.8958 20.4922 22.0234 20.8203 22.0234C21.1484 22.0234 21.4219 21.8958 21.6406 21.6406C21.8958 21.4219 22.0234 21.1484 22.0234 20.8203C22.0234 20.4922 21.8958 20.2188 21.6406 20L20.4375 18.7969ZM21.6406 6C21.8958 5.78125 22.0234 5.50781 22.0234 5.17969C22.0234 4.85156 21.8958 4.57812 21.6406 4.35938C21.4219 4.10417 21.1484 3.97656 20.8203 3.97656C20.4922 3.97656 20.2188 4.10417 20 4.35938L18.7969 5.5625C18.5417 5.81771 18.4141 6.10938 18.4141 6.4375C18.4141 6.72917 18.5417 6.98438 18.7969 7.20312C19.0156 7.42188 19.2891 7.54948 19.6172 7.58594C19.9453 7.58594 20.2188 7.45833 20.4375 7.20312L21.6406 6ZM7.20312 20.4375C7.45833 20.1823 7.58594 19.9089 7.58594 19.6172C7.58594 19.2891 7.45833 19.0156 7.20312 18.7969C6.98438 18.5417 6.71094 18.4141 6.38281 18.4141C6.05469 18.4141 5.78125 18.5417 5.5625 18.7969L4.35938 20C4.10417 20.2188 3.97656 20.4922 3.97656 20.8203C3.97656 21.1484 4.10417 21.4219 4.35938 21.6406C4.57812 21.8594 4.85156 21.987 5.17969 22.0234C5.50781 22.0234 5.78125 21.8958 6 21.6406L7.20312 20.4375Z" fill="#FFAD0D"/>
<path d="M65 2.5C63.5417 2.5 62.1745 2.77344 60.8984 3.32031C59.6589 3.86719 58.5469 4.63281 57.5625 5.61719C56.6146 6.5651 55.8672 7.67708 55.3203 8.95312C54.7734 10.1927 54.5 11.5417 54.5 13C54.5 14.4583 54.7734 15.8255 55.3203 17.1016C55.8672 18.3411 56.6146 19.4531 57.5625 20.4375C58.5469 21.3854 59.6589 22.1328 60.8984 22.6797C62.1745 23.2266 63.5417 23.5 65 23.5C66.4583 23.5 67.8073 23.2266 69.0469 22.6797C70.3229 22.1328 71.4349 21.3854 72.3828 20.4375C73.3672 19.4531 74.1328 18.3411 74.6797 17.1016C75.2266 15.8255 75.5 14.4583 75.5 13C75.5 12.7448 75.4818 12.4896 75.4453 12.2344C75.4453 11.9427 75.4271 11.6693 75.3906 11.4141C74.8073 12.2161 74.0599 12.8542 73.1484 13.3281C72.2734 13.8021 71.3073 14.0391 70.25 14.0391C69.0833 14.0391 68.026 13.7656 67.0781 13.2188C66.1302 12.6354 65.3646 11.8698 64.7812 10.9219C64.2344 9.97396 63.9609 8.91667 63.9609 7.75C63.9609 6.69271 64.1979 5.72656 64.6719 4.85156C65.1458 3.9401 65.7839 3.19271 66.5859 2.60938C66.3307 2.57292 66.0573 2.55469 65.7656 2.55469C65.5104 2.51823 65.2552 2.5 65 2.5Z" fill="#F6EBD9"/>
</svg>
