<?xml version="1.0" encoding="utf-8"?>
<!-- Generator: Adobe Illustrator 27.4.0, SVG Export Plug-In . SVG Version: 6.00 Build 0)  -->
<svg version="1.1" id="Layer_1" xmlns="http://www.w3.org/2000/svg" xmlns:xlink="http://www.w3.org/1999/xlink" x="0px" y="0px"
	 viewBox="0 0 21 21" style="enable-background:new 0 0 21 21;" xml:space="preserve">
<style type="text/css">
	.st0{fill:#FFAD0D;}
	.st1{fill:#F6EBD9;}
</style>
<path class="st1" d="M10.5,0C9,0,7.7,0.3,6.4,0.8C5.2,1.4,4,2.1,3.1,3.1C2.1,4.1,1.4,5.2,0.8,6.5C0.3,7.7,0,9,0,10.5
	s0.3,2.8,0.8,4.1c0.5,1.2,1.3,2.4,2.2,3.3c1,0.9,2.1,1.7,3.3,2.2C7.7,20.7,9,21,10.5,21c1.5,0,2.8-0.3,4-0.8
	c1.3-0.5,2.4-1.3,3.3-2.2c1-1,1.8-2.1,2.3-3.3c0.5-1.3,0.8-2.6,0.8-4.1c0-0.3,0-0.5-0.1-0.8c0-0.3,0-0.6-0.1-0.8
	c-0.6,0.8-1.3,1.4-2.2,1.9c-0.9,0.5-1.8,0.7-2.9,0.7c-1.2,0-2.2-0.3-3.2-0.8c-0.9-0.6-1.7-1.3-2.3-2.3c-0.5-0.9-0.8-2-0.8-3.2
	c0-1.1,0.2-2,0.7-2.9c0.5-0.9,1.1-1.7,1.9-2.2c-0.3,0-0.5-0.1-0.8-0.1C11,0,10.8,0,10.5,0z"/>
</svg>
