<?xml version="1.0" encoding="utf-8"?>
<!-- Generator: Adobe Illustrator 27.4.0, SVG Export Plug-In . SVG Version: 6.00 Build 0)  -->
<svg version="1.1" id="Layer_1" xmlns="http://www.w3.org/2000/svg" xmlns:xlink="http://www.w3.org/1999/xlink" x="0px" y="0px"
	 viewBox="0 0 25.7 25.7" style="enable-background:new 0 0 25.7 25.7;" xml:space="preserve">
<style type="text/css">
	.st0{fill:#FFAD0D;}
	.st1{fill:#F6EBD9;}
</style>
<path class="st0" d="M12.9,7c-1.1,0-2,0.3-3,0.8C9,8.3,8.3,9,7.8,10C7.3,10.8,7,11.8,7,12.9s0.3,2,0.8,3c0.5,0.9,1.3,1.6,2.1,2.1
	c0.9,0.5,1.9,0.8,3,0.8s2-0.3,2.9-0.8c0.9-0.5,1.6-1.3,2.1-2.1c0.5-0.9,0.8-1.9,0.8-3s-0.3-2-0.8-2.9c-0.5-0.9-1.2-1.6-2.1-2.1
	C14.9,7.3,13.9,7,12.9,7z M1.2,14h2.3c0.3,0,0.6-0.1,0.8-0.3c0.3-0.2,0.4-0.5,0.4-0.8S4.6,12.2,4.3,12c-0.2-0.2-0.5-0.3-0.8-0.3H1.2
	c-0.3,0-0.6,0.1-0.9,0.3C0.1,12.2,0,12.5,0,12.9s0.1,0.6,0.3,0.8C0.6,13.9,0.9,14,1.2,14z M22.2,14h2.3c0.3,0,0.6-0.1,0.8-0.3
	c0.3-0.2,0.4-0.5,0.4-0.8s-0.1-0.6-0.4-0.8c-0.2-0.2-0.5-0.3-0.8-0.3h-2.3c-0.3,0-0.6,0.1-0.9,0.3c-0.2,0.2-0.3,0.5-0.3,0.8
	s0.1,0.6,0.3,0.8C21.6,13.9,21.9,14,22.2,14z M11.7,1.2v2.3c0,0.3,0.1,0.6,0.3,0.9c0.2,0.2,0.5,0.3,0.8,0.3s0.6-0.1,0.8-0.3
	C13.9,4.1,14,3.8,14,3.5V1.2c0-0.3-0.1-0.6-0.3-0.8C13.5,0.1,13.2,0,12.9,0S12.2,0.1,12,0.4C11.8,0.6,11.7,0.9,11.7,1.2z M11.7,22.2
	v2.3c0,0.3,0.1,0.6,0.3,0.9c0.2,0.2,0.5,0.3,0.8,0.3s0.6-0.1,0.8-0.3c0.2-0.3,0.3-0.5,0.3-0.9v-2.3c0-0.3-0.1-0.6-0.3-0.8
	c-0.2-0.3-0.5-0.4-0.8-0.4s-0.6,0.1-0.8,0.4C11.8,21.6,11.7,21.9,11.7,22.2z M5.9,4.2C5.6,4,5.4,3.8,5,3.8C4.7,3.8,4.4,4,4.2,4.2
	C4,4.4,3.8,4.7,3.8,5c0,0.3,0.1,0.6,0.4,0.8l1.2,1.2c0.3,0.3,0.5,0.4,0.8,0.4c0.3,0,0.6-0.1,0.8-0.4c0.2-0.2,0.3-0.5,0.3-0.8
	c0-0.3-0.1-0.6-0.3-0.8L5.9,4.2z M20.3,18.6c-0.3-0.3-0.5-0.4-0.9-0.4c-0.3,0-0.5,0.1-0.8,0.4c-0.3,0.2-0.4,0.5-0.4,0.8
	c0,0.3,0.1,0.6,0.4,0.8l1.2,1.2c0.2,0.3,0.5,0.4,0.8,0.4c0.3,0,0.6-0.1,0.8-0.4c0.3-0.2,0.4-0.5,0.4-0.8c0-0.3-0.1-0.6-0.4-0.8
	L20.3,18.6z M21.5,5.9c0.3-0.2,0.4-0.5,0.4-0.8c0-0.3-0.1-0.6-0.4-0.8C21.3,4,21,3.8,20.7,3.8c-0.3,0-0.6,0.1-0.8,0.4l-1.2,1.2
	c-0.3,0.3-0.4,0.5-0.4,0.9c0,0.3,0.1,0.5,0.4,0.8c0.2,0.2,0.5,0.3,0.8,0.4c0.3,0,0.6-0.1,0.8-0.4L21.5,5.9z M7.1,20.3
	c0.3-0.3,0.4-0.5,0.4-0.8c0-0.3-0.1-0.6-0.4-0.8c-0.2-0.3-0.5-0.4-0.8-0.4c-0.3,0-0.6,0.1-0.8,0.4l-1.2,1.2
	c-0.3,0.2-0.4,0.5-0.4,0.8c0,0.3,0.1,0.6,0.4,0.8c0.2,0.2,0.5,0.3,0.8,0.4c0.3,0,0.6-0.1,0.8-0.4L7.1,20.3z"/>
</svg>
